<svg xmlns="http://www.w3.org/2000/svg" width="1024" height="1024" viewBox="0 0 1024 1024" role="img" aria-label="BAZA">
  <defs>
    <linearGradient id="bg" x1="0%" y1="0%" x2="100%" y2="100%">
      <stop offset="0%" stop-color="#0038b8"/>
      <stop offset="45%" stop-color="#0052FF"/>
      <stop offset="100%" stop-color="#1a7bff"/>
    </linearGradient>
    <radialGradient id="bgGlow" cx="32%" cy="22%" r="72%">
      <stop offset="0%" stop-color="#5b9dff" stop-opacity="0.55"/>
      <stop offset="55%" stop-color="#0052FF" stop-opacity="0"/>
    </radialGradient>
    <linearGradient id="rimOuter" x1="0%" y1="0%" x2="100%" y2="100%">
      <stop offset="0%" stop-color="#8ec0ff"/>
      <stop offset="18%" stop-color="#d8ebff"/>
      <stop offset="42%" stop-color="#4d8fff"/>
      <stop offset="68%" stop-color="#0a2f8f"/>
      <stop offset="100%" stop-color="#00153f"/>
    </linearGradient>
    <linearGradient id="rimInner" x1="18%" y1="12%" x2="82%" y2="88%">
      <stop offset="0%" stop-color="#1f6fff"/>
      <stop offset="38%" stop-color="#0046d4"/>
      <stop offset="100%" stop-color="#001f66"/>
    </linearGradient>
    <radialGradient id="face" cx="38%" cy="28%" r="78%">
      <stop offset="0%" stop-color="#2f7dff"/>
      <stop offset="34%" stop-color="#0052FF"/>
      <stop offset="100%" stop-color="#001a66"/>
    </radialGradient>
    <linearGradient id="textFill" x1="0%" y1="0%" x2="0%" y2="100%">
      <stop offset="0%" stop-color="#ffffff"/>
      <stop offset="48%" stop-color="#d9e8ff"/>
      <stop offset="100%" stop-color="#8eb8ff"/>
    </linearGradient>
    <filter id="softGlow" x="-30%" y="-30%" width="160%" height="160%">
      <feGaussianBlur stdDeviation="18" result="blur"/>
      <feColorMatrix in="blur" type="matrix"
        values="0 0 0 0 0
                0 0 0 0 0.32
                0 0 0 0 1
                0 0 0 0.55 0"/>
      <feMerge>
        <feMergeNode/>
        <feMergeNode in="SourceGraphic"/>
      </feMerge>
    </filter>
    <filter id="textShadow" x="-20%" y="-20%" width="140%" height="140%">
      <feDropShadow dx="0" dy="8" stdDeviation="6" flood-color="#001033" flood-opacity="0.55"/>
      <feDropShadow dx="0" dy="2" stdDeviation="1" flood-color="#ffffff" flood-opacity="0.18"/>
    </filter>
    <clipPath id="coinClip">
      <circle cx="512" cy="512" r="360"/>
    </clipPath>
  </defs>

  <!-- App icon background -->
  <rect width="1024" height="1024" rx="224" fill="url(#bg)"/>
  <rect width="1024" height="1024" rx="224" fill="url(#bgGlow)"/>

  <!-- Outer coin ring -->
  <circle cx="512" cy="512" r="392" fill="url(#rimOuter)"/>
  <circle cx="512" cy="512" r="372" fill="url(#rimInner)"/>

  <!-- Coin face -->
  <circle cx="512" cy="512" r="348" fill="url(#face)" filter="url(#softGlow)"/>

  <!-- Inner bevel -->
  <circle cx="512" cy="512" r="348" fill="none" stroke="rgba(255,255,255,0.22)" stroke-width="4"/>
  <circle cx="512" cy="512" r="318" fill="none" stroke="rgba(0,0,0,0.28)" stroke-width="3"/>

  <!-- Mining pick accent -->
  <g clip-path="url(#coinClip)" opacity="0.14">
    <path
      d="M170 760 C 260 690, 360 640, 470 610 C 560 585, 650 575, 760 570
         C 700 620, 620 690, 540 760 C 430 860, 290 910, 170 760 Z"
      fill="#ffffff"
    />
    <path
      d="M760 250 L 830 180 L 860 210 L 790 280 Z"
      fill="#ffffff"
    />
    <path
      d="M760 250 C 700 310, 650 380, 620 460"
      fill="none"
      stroke="#ffffff"
      stroke-width="28"
      stroke-linecap="round"
    />
  </g>

  <!-- Spark marks -->
  <g fill="#ffffff" opacity="0.85">
    <circle cx="760" cy="286" r="10"/>
    <circle cx="792" cy="318" r="6"/>
    <path d="M748 248 L756 272 L780 264 L758 282 L766 306 L748 288 L726 296 L744 278 L736 254 Z" opacity="0.7"/>
  </g>

  <!-- Wordmark -->
  <text
    x="512"
    y="548"
    text-anchor="middle"
    font-family="Inter, ui-sans-serif, system-ui, -apple-system, BlinkMacSystemFont, Segoe UI, sans-serif"
    font-size="168"
    font-weight="900"
    fill="url(#textFill)"
    letter-spacing="0.12em"
    filter="url(#textShadow)"
  >BAZA</text>

  <!-- Subtle underline gem -->
  <path
    d="M412 598 L512 628 L612 598 L512 648 Z"
    fill="#ffffff"
    opacity="0.22"
  />
</svg>
