<svg xmlns="http://www.w3.org/2000/svg" width="1910" height="1000" viewBox="0 0 1910 1000" role="img" aria-label="BAZA">
  <defs>
    <linearGradient id="bg" x1="0%" y1="0%" x2="100%" y2="100%">
      <stop offset="0%" stop-color="#0038b8"/>
      <stop offset="45%" stop-color="#0052FF"/>
      <stop offset="100%" stop-color="#1a7bff"/>
    </linearGradient>
    <radialGradient id="bgGlow" cx="18%" cy="38%" r="55%">
      <stop offset="0%" stop-color="#5b9dff" stop-opacity="0.45"/>
      <stop offset="60%" stop-color="#0052FF" stop-opacity="0"/>
    </radialGradient>
    <radialGradient id="bgGlow2" cx="88%" cy="18%" r="40%">
      <stop offset="0%" stop-color="#8ec0ff" stop-opacity="0.22"/>
      <stop offset="100%" stop-color="#0052FF" stop-opacity="0"/>
    </radialGradient>
    <linearGradient id="rimOuter" x1="0%" y1="0%" x2="100%" y2="100%">
      <stop offset="0%" stop-color="#8ec0ff"/>
      <stop offset="18%" stop-color="#d8ebff"/>
      <stop offset="42%" stop-color="#4d8fff"/>
      <stop offset="68%" stop-color="#0a2f8f"/>
      <stop offset="100%" stop-color="#00153f"/>
    </linearGradient>
    <linearGradient id="rimInner" x1="18%" y1="12%" x2="82%" y2="88%">
      <stop offset="0%" stop-color="#1f6fff"/>
      <stop offset="38%" stop-color="#0046d4"/>
      <stop offset="100%" stop-color="#001f66"/>
    </linearGradient>
    <radialGradient id="face" cx="38%" cy="28%" r="78%">
      <stop offset="0%" stop-color="#2f7dff"/>
      <stop offset="34%" stop-color="#0052FF"/>
      <stop offset="100%" stop-color="#001a66"/>
    </radialGradient>
    <linearGradient id="textFill" x1="0%" y1="0%" x2="0%" y2="100%">
      <stop offset="0%" stop-color="#ffffff"/>
      <stop offset="48%" stop-color="#d9e8ff"/>
      <stop offset="100%" stop-color="#8eb8ff"/>
    </linearGradient>
    <filter id="softGlow" x="-30%" y="-30%" width="160%" height="160%">
      <feGaussianBlur stdDeviation="14" result="blur"/>
      <feColorMatrix in="blur" type="matrix"
        values="0 0 0 0 0
                0 0 0 0 0.32
                0 0 0 0 1
                0 0 0 0.45 0"/>
      <feMerge>
        <feMergeNode/>
        <feMergeNode in="SourceGraphic"/>
      </feMerge>
    </filter>
    <filter id="textShadow" x="-20%" y="-20%" width="140%" height="140%">
      <feDropShadow dx="0" dy="6" stdDeviation="5" flood-color="#001033" flood-opacity="0.5"/>
      <feDropShadow dx="0" dy="2" stdDeviation="1" flood-color="#ffffff" flood-opacity="0.16"/>
    </filter>
    <clipPath id="coinClip">
      <circle cx="420" cy="500" r="290"/>
    </clipPath>
  </defs>

  <rect width="1910" height="1000" fill="url(#bg)"/>
  <rect width="1910" height="1000" fill="url(#bgGlow)"/>
  <rect width="1910" height="1000" fill="url(#bgGlow2)"/>

  <!-- Decorative grid -->
  <g opacity="0.06" stroke="#ffffff" stroke-width="1">
    <line x1="0" y1="200" x2="1910" y2="200"/>
    <line x1="0" y1="500" x2="1910" y2="500"/>
    <line x1="0" y1="800" x2="1910" y2="800"/>
    <line x1="760" y1="0" x2="760" y2="1000"/>
  </g>

  <!-- Coin -->
  <circle cx="420" cy="500" r="318" fill="url(#rimOuter)"/>
  <circle cx="420" cy="500" r="302" fill="url(#rimInner)"/>
  <circle cx="420" cy="500" r="282" fill="url(#face)" filter="url(#softGlow)"/>
  <circle cx="420" cy="500" r="282" fill="none" stroke="rgba(255,255,255,0.22)" stroke-width="3"/>
  <circle cx="420" cy="500" r="258" fill="none" stroke="rgba(0,0,0,0.28)" stroke-width="2"/>

  <g clip-path="url(#coinClip)" opacity="0.14">
    <path
      d="M170 680 C 250 620, 330 580, 410 560 C 480 545, 550 540, 620 538
         C 570 580, 510 630, 450 680 C 360 760, 250 790, 170 680 Z"
      fill="#ffffff"
    />
    <path d="M620 280 L 675 225 L 698 248 L 643 303 Z" fill="#ffffff"/>
    <path
      d="M620 280 C 575 325, 540 380, 515 440"
      fill="none"
      stroke="#ffffff"
      stroke-width="22"
      stroke-linecap="round"
    />
  </g>

  <g fill="#ffffff" opacity="0.85">
    <circle cx="648" cy="312" r="8"/>
    <circle cx="672" cy="336" r="5"/>
    <path d="M638 278 L644 296 L662 290 L646 304 L652 322 L638 308 L622 314 L634 300 L628 282 Z" opacity="0.7"/>
  </g>

  <text
    x="420"
    y="522"
    text-anchor="middle"
    font-family="Inter, ui-sans-serif, system-ui, -apple-system, BlinkMacSystemFont, Segoe UI, sans-serif"
    font-size="136"
    font-weight="900"
    fill="url(#textFill)"
    letter-spacing="0.12em"
    filter="url(#textShadow)"
  >BAZA</text>

  <path
    d="M340 562 L420 586 L500 562 L420 602 Z"
    fill="#ffffff"
    opacity="0.22"
  />

  <!-- Right-side branding -->
  <text
    x="860"
    y="470"
    font-family="Inter, ui-sans-serif, system-ui, -apple-system, BlinkMacSystemFont, Segoe UI, sans-serif"
    font-size="210"
    font-weight="900"
    fill="url(#textFill)"
    letter-spacing="0.1em"
    filter="url(#textShadow)"
  >BAZA</text>

  <text
    x="862"
    y="560"
    font-family="Inter, ui-sans-serif, system-ui, -apple-system, BlinkMacSystemFont, Segoe UI, sans-serif"
    font-size="42"
    font-weight="600"
    fill="rgba(232,240,255,0.92)"
    letter-spacing="0.04em"
  >Mine &amp; claim $BAZA on Base</text>

  <text
    x="862"
    y="630"
    font-family="Inter, ui-sans-serif, system-ui, -apple-system, BlinkMacSystemFont, Segoe UI, sans-serif"
    font-size="30"
    font-weight="500"
    fill="rgba(200,220,255,0.75)"
    letter-spacing="0.06em"
  >Daily streaks · On-chain rewards</text>

  <!-- Accent pill -->
  <rect x="860" y="680" width="320" height="56" rx="28" fill="rgba(255,255,255,0.12)" stroke="rgba(255,255,255,0.28)" stroke-width="2"/>
  <circle cx="892" cy="708" r="8" fill="#22c55e"/>
  <text
    x="918"
    y="716"
    font-family="Inter, ui-sans-serif, system-ui, sans-serif"
    font-size="24"
    font-weight="700"
    fill="#ffffff"
    letter-spacing="0.08em"
  >LIVE ON BASE</text>
</svg>
